# xmcd
#
# Track frame offsets: 
#        150
#        31431
#        46687
#        58301
#        75618
#        107430
#        129195
#        147526
#        166266
#        180673
#        194217
#        208255
#
# Disc length: 2972 seconds
#
# Revision: 0
# Processed by: cddbd v1.5.2PL0 Copyright (c) Steve Scherf et al.
# Submitted via: ExactAudioCopy v0.99pb4
#
DISCID=ac0b9a0c
DTITLE=Arne Domnérus - Memories Of You [CD 2)
DYEAR=2008
DGENRE=Jazz
TTITLE0=Things Ain't What they Used To Be
TTITLE1=Hymn To Freedom
TTITLE2=The Midnight Sun Will Never Set
TTITLE3=Autumn Leaves
TTITLE4=Take Five
TTITLE5=Jazz Me Blues
TTITLE6=Lush Life
TTITLE7=Is God A Three Letter Word For Love
TTITLE8=The Fable Of A Fool
TTITLE9=Hallelujah
TTITLE10=That Old Black Magic
TTITLE11=Out Of Nowhere
EXTD=
EXTT0=
EXTT1=
EXTT2=
EXTT3=
EXTT4=
EXTT5=
EXTT6=
EXTT7=
EXTT8=
EXTT9=
EXTT10=
EXTT11=
PLAYORDER=
